<mxfile host="Electron" modified="2024-04-26T13:02:23.701Z" agent="Mozilla/5.0 (Windows NT 10.0; Win64; x64) AppleWebKit/537.36 (KHTML, like Gecko) draw.io/22.1.2 Chrome/114.0.5735.289 Electron/25.9.4 Safari/537.36" etag="PnDNYySxkRB7ZNhOt2Ln" version="22.1.2" type="device" pages="2">
  <diagram name="Страница — 1" id="z-o_dpETZjHSUuHraW43">
    <mxGraphModel dx="1863" dy="1775" grid="1" gridSize="10" guides="1" tooltips="1" connect="1" arrows="1" fold="1" page="1" pageScale="1" pageWidth="827" pageHeight="1169" math="0" shadow="0">
      <root>
        <mxCell id="0" />
        <mxCell id="1" parent="0" />
        <mxCell id="DQZZiixQTLuT5hJCafT9-3" value="" style="edgeStyle=orthogonalEdgeStyle;rounded=0;orthogonalLoop=1;jettySize=auto;html=1;entryX=0.5;entryY=1;entryDx=0;entryDy=0;exitX=0.504;exitY=0.039;exitDx=0;exitDy=0;exitPerimeter=0;" parent="1" source="DQZZiixQTLuT5hJCafT9-1" target="DQZZiixQTLuT5hJCafT9-2" edge="1">
          <mxGeometry relative="1" as="geometry">
            <Array as="points">
              <mxPoint x="151" y="180" />
              <mxPoint x="30" y="180" />
            </Array>
          </mxGeometry>
        </mxCell>
        <mxCell id="DQZZiixQTLuT5hJCafT9-5" value="" style="edgeStyle=orthogonalEdgeStyle;rounded=0;orthogonalLoop=1;jettySize=auto;html=1;exitX=0.5;exitY=0;exitDx=0;exitDy=0;entryX=0.5;entryY=1;entryDx=0;entryDy=0;" parent="1" source="DQZZiixQTLuT5hJCafT9-1" target="DQZZiixQTLuT5hJCafT9-4" edge="1">
          <mxGeometry relative="1" as="geometry">
            <Array as="points">
              <mxPoint x="150" y="180" />
              <mxPoint x="220" y="180" />
            </Array>
          </mxGeometry>
        </mxCell>
        <mxCell id="DQZZiixQTLuT5hJCafT9-12" style="edgeStyle=orthogonalEdgeStyle;rounded=0;orthogonalLoop=1;jettySize=auto;html=1;entryX=0;entryY=0.5;entryDx=0;entryDy=0;" parent="1" source="DQZZiixQTLuT5hJCafT9-1" target="DQZZiixQTLuT5hJCafT9-9" edge="1">
          <mxGeometry relative="1" as="geometry" />
        </mxCell>
        <mxCell id="DQZZiixQTLuT5hJCafT9-16" style="edgeStyle=orthogonalEdgeStyle;rounded=0;orthogonalLoop=1;jettySize=auto;html=1;entryX=1;entryY=0.5;entryDx=0;entryDy=0;" parent="1" source="DQZZiixQTLuT5hJCafT9-1" target="DQZZiixQTLuT5hJCafT9-15" edge="1">
          <mxGeometry relative="1" as="geometry" />
        </mxCell>
        <mxCell id="DQZZiixQTLuT5hJCafT9-17" style="edgeStyle=orthogonalEdgeStyle;rounded=0;orthogonalLoop=1;jettySize=auto;html=1;" parent="1" source="DQZZiixQTLuT5hJCafT9-1" target="DQZZiixQTLuT5hJCafT9-6" edge="1">
          <mxGeometry relative="1" as="geometry" />
        </mxCell>
        <mxCell id="DQZZiixQTLuT5hJCafT9-18" style="edgeStyle=orthogonalEdgeStyle;rounded=0;orthogonalLoop=1;jettySize=auto;html=1;" parent="1" source="DQZZiixQTLuT5hJCafT9-1" target="DQZZiixQTLuT5hJCafT9-7" edge="1">
          <mxGeometry relative="1" as="geometry" />
        </mxCell>
        <mxCell id="DQZZiixQTLuT5hJCafT9-1" value="Государственный бюджет" style="rounded=1;whiteSpace=wrap;html=1;" parent="1" vertex="1">
          <mxGeometry x="90" y="200" width="120" height="60" as="geometry" />
        </mxCell>
        <mxCell id="DQZZiixQTLuT5hJCafT9-34" value="" style="edgeStyle=orthogonalEdgeStyle;rounded=0;orthogonalLoop=1;jettySize=auto;html=1;" parent="1" source="DQZZiixQTLuT5hJCafT9-2" target="DQZZiixQTLuT5hJCafT9-32" edge="1">
          <mxGeometry relative="1" as="geometry" />
        </mxCell>
        <mxCell id="DQZZiixQTLuT5hJCafT9-35" value="" style="edgeStyle=orthogonalEdgeStyle;rounded=0;orthogonalLoop=1;jettySize=auto;html=1;" parent="1" source="DQZZiixQTLuT5hJCafT9-2" target="DQZZiixQTLuT5hJCafT9-32" edge="1">
          <mxGeometry relative="1" as="geometry" />
        </mxCell>
        <mxCell id="DQZZiixQTLuT5hJCafT9-36" style="edgeStyle=orthogonalEdgeStyle;rounded=0;orthogonalLoop=1;jettySize=auto;html=1;entryX=0.5;entryY=1;entryDx=0;entryDy=0;" parent="1" source="DQZZiixQTLuT5hJCafT9-2" target="DQZZiixQTLuT5hJCafT9-31" edge="1">
          <mxGeometry relative="1" as="geometry" />
        </mxCell>
        <mxCell id="DQZZiixQTLuT5hJCafT9-37" style="edgeStyle=orthogonalEdgeStyle;rounded=0;orthogonalLoop=1;jettySize=auto;html=1;" parent="1" source="DQZZiixQTLuT5hJCafT9-2" target="DQZZiixQTLuT5hJCafT9-30" edge="1">
          <mxGeometry relative="1" as="geometry" />
        </mxCell>
        <mxCell id="DQZZiixQTLuT5hJCafT9-38" style="edgeStyle=orthogonalEdgeStyle;rounded=0;orthogonalLoop=1;jettySize=auto;html=1;entryX=0.5;entryY=1;entryDx=0;entryDy=0;" parent="1" source="DQZZiixQTLuT5hJCafT9-2" target="DQZZiixQTLuT5hJCafT9-29" edge="1">
          <mxGeometry relative="1" as="geometry" />
        </mxCell>
        <mxCell id="DQZZiixQTLuT5hJCafT9-39" style="edgeStyle=orthogonalEdgeStyle;rounded=0;orthogonalLoop=1;jettySize=auto;html=1;" parent="1" source="DQZZiixQTLuT5hJCafT9-2" target="DQZZiixQTLuT5hJCafT9-33" edge="1">
          <mxGeometry relative="1" as="geometry" />
        </mxCell>
        <mxCell id="DQZZiixQTLuT5hJCafT9-2" value="Признаки" style="rounded=1;whiteSpace=wrap;html=1;" parent="1" vertex="1">
          <mxGeometry x="-30" y="50" width="120" height="60" as="geometry" />
        </mxCell>
        <mxCell id="DQZZiixQTLuT5hJCafT9-25" style="edgeStyle=orthogonalEdgeStyle;rounded=0;orthogonalLoop=1;jettySize=auto;html=1;entryX=0.5;entryY=1;entryDx=0;entryDy=0;" parent="1" source="DQZZiixQTLuT5hJCafT9-4" target="DQZZiixQTLuT5hJCafT9-19" edge="1">
          <mxGeometry relative="1" as="geometry" />
        </mxCell>
        <mxCell id="DQZZiixQTLuT5hJCafT9-26" style="edgeStyle=orthogonalEdgeStyle;rounded=0;orthogonalLoop=1;jettySize=auto;html=1;entryX=0.5;entryY=1;entryDx=0;entryDy=0;" parent="1" source="DQZZiixQTLuT5hJCafT9-4" target="DQZZiixQTLuT5hJCafT9-20" edge="1">
          <mxGeometry relative="1" as="geometry">
            <Array as="points">
              <mxPoint x="360" y="80" />
            </Array>
          </mxGeometry>
        </mxCell>
        <mxCell id="DQZZiixQTLuT5hJCafT9-27" style="edgeStyle=orthogonalEdgeStyle;rounded=0;orthogonalLoop=1;jettySize=auto;html=1;" parent="1" source="DQZZiixQTLuT5hJCafT9-4" target="DQZZiixQTLuT5hJCafT9-21" edge="1">
          <mxGeometry relative="1" as="geometry" />
        </mxCell>
        <mxCell id="DQZZiixQTLuT5hJCafT9-28" style="edgeStyle=orthogonalEdgeStyle;rounded=0;orthogonalLoop=1;jettySize=auto;html=1;entryX=0.5;entryY=1;entryDx=0;entryDy=0;" parent="1" source="DQZZiixQTLuT5hJCafT9-4" target="DQZZiixQTLuT5hJCafT9-24" edge="1">
          <mxGeometry relative="1" as="geometry">
            <Array as="points">
              <mxPoint x="640" y="80" />
            </Array>
          </mxGeometry>
        </mxCell>
        <mxCell id="DQZZiixQTLuT5hJCafT9-4" value="Функции" style="rounded=1;whiteSpace=wrap;html=1;" parent="1" vertex="1">
          <mxGeometry x="160" y="50" width="120" height="60" as="geometry" />
        </mxCell>
        <mxCell id="DQZZiixQTLuT5hJCafT9-57" style="edgeStyle=orthogonalEdgeStyle;rounded=0;orthogonalLoop=1;jettySize=auto;html=1;entryX=0.5;entryY=0;entryDx=0;entryDy=0;" parent="1" source="DQZZiixQTLuT5hJCafT9-6" target="DQZZiixQTLuT5hJCafT9-55" edge="1">
          <mxGeometry relative="1" as="geometry" />
        </mxCell>
        <mxCell id="DQZZiixQTLuT5hJCafT9-58" style="edgeStyle=orthogonalEdgeStyle;rounded=0;orthogonalLoop=1;jettySize=auto;html=1;entryX=0.5;entryY=0;entryDx=0;entryDy=0;" parent="1" source="DQZZiixQTLuT5hJCafT9-6" target="DQZZiixQTLuT5hJCafT9-56" edge="1">
          <mxGeometry relative="1" as="geometry" />
        </mxCell>
        <mxCell id="DQZZiixQTLuT5hJCafT9-60" value="" style="edgeStyle=orthogonalEdgeStyle;rounded=0;orthogonalLoop=1;jettySize=auto;html=1;" parent="1" source="DQZZiixQTLuT5hJCafT9-6" target="DQZZiixQTLuT5hJCafT9-54" edge="1">
          <mxGeometry relative="1" as="geometry" />
        </mxCell>
        <mxCell id="DQZZiixQTLuT5hJCafT9-6" value="Расходы" style="rounded=1;whiteSpace=wrap;html=1;" parent="1" vertex="1">
          <mxGeometry x="-30" y="320" width="120" height="60" as="geometry" />
        </mxCell>
        <mxCell id="DQZZiixQTLuT5hJCafT9-7" value="Расходы" style="rounded=1;whiteSpace=wrap;html=1;" parent="1" vertex="1">
          <mxGeometry x="200" y="320" width="120" height="60" as="geometry" />
        </mxCell>
        <mxCell id="DQZZiixQTLuT5hJCafT9-13" style="edgeStyle=orthogonalEdgeStyle;rounded=0;orthogonalLoop=1;jettySize=auto;html=1;entryX=0.5;entryY=1;entryDx=0;entryDy=0;" parent="1" source="DQZZiixQTLuT5hJCafT9-9" target="DQZZiixQTLuT5hJCafT9-11" edge="1">
          <mxGeometry relative="1" as="geometry" />
        </mxCell>
        <mxCell id="DQZZiixQTLuT5hJCafT9-14" style="edgeStyle=orthogonalEdgeStyle;rounded=0;orthogonalLoop=1;jettySize=auto;html=1;" parent="1" source="DQZZiixQTLuT5hJCafT9-9" target="DQZZiixQTLuT5hJCafT9-10" edge="1">
          <mxGeometry relative="1" as="geometry" />
        </mxCell>
        <mxCell id="DQZZiixQTLuT5hJCafT9-9" value="Дефицит Государственного бюджета" style="rounded=1;whiteSpace=wrap;html=1;" parent="1" vertex="1">
          <mxGeometry x="830" y="200" width="120" height="60" as="geometry" />
        </mxCell>
        <mxCell id="DQZZiixQTLuT5hJCafT9-10" value="Последствия" style="rounded=1;whiteSpace=wrap;html=1;" parent="1" vertex="1">
          <mxGeometry x="1000" y="330" width="120" height="60" as="geometry" />
        </mxCell>
        <mxCell id="DQZZiixQTLuT5hJCafT9-11" value="Виды&amp;nbsp;" style="rounded=1;whiteSpace=wrap;html=1;" parent="1" vertex="1">
          <mxGeometry x="1000" y="70" width="120" height="60" as="geometry" />
        </mxCell>
        <mxCell id="DQZZiixQTLuT5hJCafT9-44" style="edgeStyle=orthogonalEdgeStyle;rounded=0;orthogonalLoop=1;jettySize=auto;html=1;entryX=0.5;entryY=1;entryDx=0;entryDy=0;" parent="1" source="DQZZiixQTLuT5hJCafT9-15" target="DQZZiixQTLuT5hJCafT9-43" edge="1">
          <mxGeometry relative="1" as="geometry" />
        </mxCell>
        <mxCell id="DQZZiixQTLuT5hJCafT9-45" style="edgeStyle=orthogonalEdgeStyle;rounded=0;orthogonalLoop=1;jettySize=auto;html=1;" parent="1" source="DQZZiixQTLuT5hJCafT9-15" target="DQZZiixQTLuT5hJCafT9-42" edge="1">
          <mxGeometry relative="1" as="geometry" />
        </mxCell>
        <mxCell id="DQZZiixQTLuT5hJCafT9-47" style="edgeStyle=orthogonalEdgeStyle;rounded=0;orthogonalLoop=1;jettySize=auto;html=1;entryX=0.5;entryY=1;entryDx=0;entryDy=0;" parent="1" source="DQZZiixQTLuT5hJCafT9-15" target="DQZZiixQTLuT5hJCafT9-41" edge="1">
          <mxGeometry relative="1" as="geometry" />
        </mxCell>
        <mxCell id="DQZZiixQTLuT5hJCafT9-48" style="edgeStyle=orthogonalEdgeStyle;rounded=0;orthogonalLoop=1;jettySize=auto;html=1;" parent="1" source="DQZZiixQTLuT5hJCafT9-15" target="DQZZiixQTLuT5hJCafT9-40" edge="1">
          <mxGeometry relative="1" as="geometry" />
        </mxCell>
        <mxCell id="DQZZiixQTLuT5hJCafT9-50" style="edgeStyle=orthogonalEdgeStyle;rounded=0;orthogonalLoop=1;jettySize=auto;html=1;entryX=0.5;entryY=1;entryDx=0;entryDy=0;" parent="1" source="DQZZiixQTLuT5hJCafT9-15" target="DQZZiixQTLuT5hJCafT9-49" edge="1">
          <mxGeometry relative="1" as="geometry">
            <mxPoint x="-580" y="180" as="targetPoint" />
            <Array as="points">
              <mxPoint x="-540" y="230" />
            </Array>
          </mxGeometry>
        </mxCell>
        <mxCell id="DQZZiixQTLuT5hJCafT9-15" value="Виды&amp;nbsp;" style="rounded=1;whiteSpace=wrap;html=1;" parent="1" vertex="1">
          <mxGeometry x="-150" y="200" width="120" height="60" as="geometry" />
        </mxCell>
        <mxCell id="DQZZiixQTLuT5hJCafT9-19" value="Финансовые приоритеты правительства." style="rounded=1;whiteSpace=wrap;html=1;" parent="1" vertex="1">
          <mxGeometry x="160" y="-70" width="120" height="60" as="geometry" />
        </mxCell>
        <mxCell id="DQZZiixQTLuT5hJCafT9-20" value="Контроль государственных расходов и доходов." style="rounded=1;whiteSpace=wrap;html=1;" parent="1" vertex="1">
          <mxGeometry x="300" y="-70" width="120" height="60" as="geometry" />
        </mxCell>
        <mxCell id="DQZZiixQTLuT5hJCafT9-21" value="Прозрачность и подотчетность в государственных финансах." style="rounded=1;whiteSpace=wrap;html=1;" parent="1" vertex="1">
          <mxGeometry x="440" y="-70" width="120" height="60" as="geometry" />
        </mxCell>
        <mxCell id="DQZZiixQTLuT5hJCafT9-24" value="Влияние на экономический рост и стабильность." style="rounded=1;whiteSpace=wrap;html=1;" parent="1" vertex="1">
          <mxGeometry x="580" y="-70" width="120" height="60" as="geometry" />
        </mxCell>
        <mxCell id="DQZZiixQTLuT5hJCafT9-29" value="материальный признак" style="rounded=1;whiteSpace=wrap;html=1;" parent="1" vertex="1">
          <mxGeometry x="-450" y="-70" width="120" height="60" as="geometry" />
        </mxCell>
        <mxCell id="DQZZiixQTLuT5hJCafT9-30" value="нормативный признак" style="rounded=1;whiteSpace=wrap;html=1;" parent="1" vertex="1">
          <mxGeometry x="-310" y="-70" width="120" height="60" as="geometry" />
        </mxCell>
        <mxCell id="DQZZiixQTLuT5hJCafT9-31" value="организационный признак" style="rounded=1;whiteSpace=wrap;html=1;" parent="1" vertex="1">
          <mxGeometry x="-170" y="-70" width="120" height="60" as="geometry" />
        </mxCell>
        <mxCell id="DQZZiixQTLuT5hJCafT9-32" value="экономический признак" style="rounded=1;whiteSpace=wrap;html=1;" parent="1" vertex="1">
          <mxGeometry x="-30" y="-70" width="120" height="60" as="geometry" />
        </mxCell>
        <mxCell id="DQZZiixQTLuT5hJCafT9-33" value="регулирующий признак" style="rounded=1;whiteSpace=wrap;html=1;" parent="1" vertex="1">
          <mxGeometry x="-590" y="-70" width="120" height="60" as="geometry" />
        </mxCell>
        <mxCell id="DQZZiixQTLuT5hJCafT9-40" value="Государственные внебюджетные фонды" style="rounded=1;whiteSpace=wrap;html=1;" parent="1" vertex="1">
          <mxGeometry x="-700" y="200" width="120" height="60" as="geometry" />
        </mxCell>
        <mxCell id="DQZZiixQTLuT5hJCafT9-53" style="edgeStyle=orthogonalEdgeStyle;rounded=0;orthogonalLoop=1;jettySize=auto;html=1;entryX=0.5;entryY=0;entryDx=0;entryDy=0;" parent="1" source="DQZZiixQTLuT5hJCafT9-41" target="DQZZiixQTLuT5hJCafT9-49" edge="1">
          <mxGeometry relative="1" as="geometry">
            <Array as="points">
              <mxPoint x="-390" y="90" />
              <mxPoint x="-540" y="90" />
            </Array>
          </mxGeometry>
        </mxCell>
        <mxCell id="DQZZiixQTLuT5hJCafT9-41" value="Муниципальные бюджеты" style="rounded=1;whiteSpace=wrap;html=1;" parent="1" vertex="1">
          <mxGeometry x="-450" y="110" width="120" height="60" as="geometry" />
        </mxCell>
        <mxCell id="DQZZiixQTLuT5hJCafT9-52" style="edgeStyle=orthogonalEdgeStyle;rounded=0;orthogonalLoop=1;jettySize=auto;html=1;entryX=0.5;entryY=0;entryDx=0;entryDy=0;" parent="1" source="DQZZiixQTLuT5hJCafT9-42" target="DQZZiixQTLuT5hJCafT9-49" edge="1">
          <mxGeometry relative="1" as="geometry">
            <Array as="points">
              <mxPoint x="-250" y="90" />
              <mxPoint x="-540" y="90" />
            </Array>
          </mxGeometry>
        </mxCell>
        <mxCell id="DQZZiixQTLuT5hJCafT9-42" value="Региональные (областные, краевые) бюджеты" style="rounded=1;whiteSpace=wrap;html=1;" parent="1" vertex="1">
          <mxGeometry x="-310" y="110" width="120" height="60" as="geometry" />
        </mxCell>
        <mxCell id="DQZZiixQTLuT5hJCafT9-51" style="edgeStyle=orthogonalEdgeStyle;rounded=0;orthogonalLoop=1;jettySize=auto;html=1;entryX=0.5;entryY=0;entryDx=0;entryDy=0;" parent="1" source="DQZZiixQTLuT5hJCafT9-43" target="DQZZiixQTLuT5hJCafT9-49" edge="1">
          <mxGeometry relative="1" as="geometry">
            <Array as="points">
              <mxPoint x="-110" y="90" />
              <mxPoint x="-540" y="90" />
            </Array>
          </mxGeometry>
        </mxCell>
        <mxCell id="DQZZiixQTLuT5hJCafT9-43" value="Федеральный бюджет" style="rounded=1;whiteSpace=wrap;html=1;" parent="1" vertex="1">
          <mxGeometry x="-170" y="110" width="120" height="60" as="geometry" />
        </mxCell>
        <mxCell id="DQZZiixQTLuT5hJCafT9-49" value="&amp;nbsp;Консолидированный бюджет" style="rounded=1;whiteSpace=wrap;html=1;" parent="1" vertex="1">
          <mxGeometry x="-600" y="110" width="120" height="60" as="geometry" />
        </mxCell>
        <mxCell id="DQZZiixQTLuT5hJCafT9-54" value="Налоговые доходы" style="rounded=1;whiteSpace=wrap;html=1;" parent="1" vertex="1">
          <mxGeometry x="-190" y="320" width="120" height="60" as="geometry" />
        </mxCell>
        <mxCell id="DQZZiixQTLuT5hJCafT9-55" value="Безвозмездные поступления" style="rounded=1;whiteSpace=wrap;html=1;" parent="1" vertex="1">
          <mxGeometry x="60" y="430" width="120" height="60" as="geometry" />
        </mxCell>
        <mxCell id="DQZZiixQTLuT5hJCafT9-56" value="Неналоговые доходы" style="rounded=1;whiteSpace=wrap;html=1;" parent="1" vertex="1">
          <mxGeometry x="-90" y="430" width="120" height="60" as="geometry" />
        </mxCell>
        <mxCell id="DQZZiixQTLuT5hJCafT9-61" value="Федеральный бюджет" style="rounded=1;whiteSpace=wrap;html=1;" parent="1" vertex="1">
          <mxGeometry x="-280" y="410" width="120" height="60" as="geometry" />
        </mxCell>
        <mxCell id="DQZZiixQTLuT5hJCafT9-62" value="Региональные (областные, краевые) бюджеты" style="rounded=1;whiteSpace=wrap;html=1;" parent="1" vertex="1">
          <mxGeometry x="-420" y="410" width="120" height="60" as="geometry" />
        </mxCell>
        <mxCell id="DQZZiixQTLuT5hJCafT9-63" value="Муниципальные бюджеты" style="rounded=1;whiteSpace=wrap;html=1;" parent="1" vertex="1">
          <mxGeometry x="-560" y="410" width="120" height="60" as="geometry" />
        </mxCell>
        <mxCell id="DQZZiixQTLuT5hJCafT9-64" value="&amp;nbsp;Консолидированный бюджет" style="rounded=1;whiteSpace=wrap;html=1;" parent="1" vertex="1">
          <mxGeometry x="-710" y="410" width="120" height="60" as="geometry" />
        </mxCell>
      </root>
    </mxGraphModel>
  </diagram>
  <diagram id="rf5xvIcOmt_7eSHyAXH8" name="Страница — 2">
    <mxGraphModel dx="1863" dy="606" grid="1" gridSize="10" guides="1" tooltips="1" connect="1" arrows="1" fold="1" page="1" pageScale="1" pageWidth="827" pageHeight="1169" math="0" shadow="0">
      <root>
        <mxCell id="0" />
        <mxCell id="1" parent="0" />
        <mxCell id="BfE1iQ-047-OJ5zsWS4T-8" style="edgeStyle=orthogonalEdgeStyle;orthogonalLoop=1;jettySize=auto;html=1;exitX=0;exitY=0.5;exitDx=0;exitDy=0;fontSize=20;curved=1;" parent="1" source="BfE1iQ-047-OJ5zsWS4T-1" target="BfE1iQ-047-OJ5zsWS4T-2" edge="1">
          <mxGeometry relative="1" as="geometry" />
        </mxCell>
        <mxCell id="BfE1iQ-047-OJ5zsWS4T-9" style="edgeStyle=orthogonalEdgeStyle;orthogonalLoop=1;jettySize=auto;html=1;fontSize=20;curved=1;" parent="1" source="BfE1iQ-047-OJ5zsWS4T-1" target="BfE1iQ-047-OJ5zsWS4T-5" edge="1">
          <mxGeometry relative="1" as="geometry" />
        </mxCell>
        <mxCell id="BfE1iQ-047-OJ5zsWS4T-10" style="edgeStyle=orthogonalEdgeStyle;orthogonalLoop=1;jettySize=auto;html=1;exitX=1;exitY=0.5;exitDx=0;exitDy=0;fontSize=20;curved=1;" parent="1" source="BfE1iQ-047-OJ5zsWS4T-1" target="BfE1iQ-047-OJ5zsWS4T-6" edge="1">
          <mxGeometry relative="1" as="geometry" />
        </mxCell>
        <mxCell id="BfE1iQ-047-OJ5zsWS4T-11" style="edgeStyle=orthogonalEdgeStyle;orthogonalLoop=1;jettySize=auto;html=1;exitX=1;exitY=0.5;exitDx=0;exitDy=0;fontSize=20;curved=1;" parent="1" source="BfE1iQ-047-OJ5zsWS4T-1" target="BfE1iQ-047-OJ5zsWS4T-7" edge="1">
          <mxGeometry relative="1" as="geometry" />
        </mxCell>
        <mxCell id="BfE1iQ-047-OJ5zsWS4T-27" style="edgeStyle=orthogonalEdgeStyle;shape=connector;rounded=1;orthogonalLoop=1;jettySize=auto;html=1;entryX=0.5;entryY=0;entryDx=0;entryDy=0;labelBackgroundColor=default;strokeColor=default;align=center;verticalAlign=middle;fontFamily=Helvetica;fontSize=20;fontColor=default;endArrow=classic;curved=1;" parent="1" source="BfE1iQ-047-OJ5zsWS4T-1" target="BfE1iQ-047-OJ5zsWS4T-12" edge="1">
          <mxGeometry relative="1" as="geometry" />
        </mxCell>
        <mxCell id="BfE1iQ-047-OJ5zsWS4T-1" value="" style="ellipse;whiteSpace=wrap;html=1;aspect=fixed;fontSize=20;" parent="1" vertex="1">
          <mxGeometry x="490" y="250" width="80" height="80" as="geometry" />
        </mxCell>
        <mxCell id="BfE1iQ-047-OJ5zsWS4T-15" value="" style="edgeStyle=orthogonalEdgeStyle;orthogonalLoop=1;jettySize=auto;html=1;curved=1;" parent="1" source="BfE1iQ-047-OJ5zsWS4T-2" target="BfE1iQ-047-OJ5zsWS4T-13" edge="1">
          <mxGeometry relative="1" as="geometry" />
        </mxCell>
        <mxCell id="BfE1iQ-047-OJ5zsWS4T-31" style="edgeStyle=orthogonalEdgeStyle;shape=connector;curved=1;rounded=1;orthogonalLoop=1;jettySize=auto;html=1;entryX=0.5;entryY=0;entryDx=0;entryDy=0;labelBackgroundColor=default;strokeColor=default;align=center;verticalAlign=middle;fontFamily=Helvetica;fontSize=20;fontColor=default;endArrow=classic;" parent="1" source="BfE1iQ-047-OJ5zsWS4T-2" target="BfE1iQ-047-OJ5zsWS4T-1" edge="1">
          <mxGeometry relative="1" as="geometry">
            <Array as="points">
              <mxPoint x="270" y="230" />
              <mxPoint x="530" y="230" />
            </Array>
          </mxGeometry>
        </mxCell>
        <mxCell id="BfE1iQ-047-OJ5zsWS4T-2" value="a" style="ellipse;whiteSpace=wrap;html=1;aspect=fixed;fontSize=20;" parent="1" vertex="1">
          <mxGeometry x="230" y="250" width="80" height="80" as="geometry" />
        </mxCell>
        <mxCell id="BfE1iQ-047-OJ5zsWS4T-24" style="edgeStyle=orthogonalEdgeStyle;shape=connector;rounded=1;orthogonalLoop=1;jettySize=auto;html=1;entryX=0.08;entryY=0.812;entryDx=0;entryDy=0;labelBackgroundColor=default;strokeColor=default;align=center;verticalAlign=middle;fontFamily=Helvetica;fontSize=20;fontColor=default;endArrow=classic;entryPerimeter=0;curved=1;" parent="1" source="BfE1iQ-047-OJ5zsWS4T-5" target="BfE1iQ-047-OJ5zsWS4T-1" edge="1">
          <mxGeometry relative="1" as="geometry" />
        </mxCell>
        <mxCell id="BfE1iQ-047-OJ5zsWS4T-5" value="b" style="ellipse;whiteSpace=wrap;html=1;aspect=fixed;fontSize=20;" parent="1" vertex="1">
          <mxGeometry x="380" y="460" width="80" height="80" as="geometry" />
        </mxCell>
        <mxCell id="BfE1iQ-047-OJ5zsWS4T-25" style="edgeStyle=orthogonalEdgeStyle;shape=connector;rounded=1;orthogonalLoop=1;jettySize=auto;html=1;labelBackgroundColor=default;strokeColor=default;align=center;verticalAlign=middle;fontFamily=Helvetica;fontSize=20;fontColor=default;endArrow=classic;entryX=1;entryY=1;entryDx=0;entryDy=0;curved=1;" parent="1" source="BfE1iQ-047-OJ5zsWS4T-6" target="BfE1iQ-047-OJ5zsWS4T-1" edge="1">
          <mxGeometry relative="1" as="geometry">
            <mxPoint x="530" y="340" as="targetPoint" />
          </mxGeometry>
        </mxCell>
        <mxCell id="BfE1iQ-047-OJ5zsWS4T-6" value="c" style="ellipse;whiteSpace=wrap;html=1;aspect=fixed;fontSize=20;" parent="1" vertex="1">
          <mxGeometry x="680" y="440" width="80" height="80" as="geometry" />
        </mxCell>
        <mxCell id="BfE1iQ-047-OJ5zsWS4T-26" style="edgeStyle=orthogonalEdgeStyle;shape=connector;rounded=1;orthogonalLoop=1;jettySize=auto;html=1;entryX=0.5;entryY=0;entryDx=0;entryDy=0;labelBackgroundColor=default;strokeColor=default;align=center;verticalAlign=middle;fontFamily=Helvetica;fontSize=20;fontColor=default;endArrow=classic;exitX=0.5;exitY=0;exitDx=0;exitDy=0;curved=1;" parent="1" source="BfE1iQ-047-OJ5zsWS4T-7" target="BfE1iQ-047-OJ5zsWS4T-1" edge="1">
          <mxGeometry relative="1" as="geometry" />
        </mxCell>
        <mxCell id="BfE1iQ-047-OJ5zsWS4T-7" value="d" style="ellipse;whiteSpace=wrap;html=1;aspect=fixed;fontSize=20;" parent="1" vertex="1">
          <mxGeometry x="690" y="250" width="80" height="80" as="geometry" />
        </mxCell>
        <mxCell id="BfE1iQ-047-OJ5zsWS4T-12" value="F" style="ellipse;whiteSpace=wrap;html=1;aspect=fixed;fontSize=20;" parent="1" vertex="1">
          <mxGeometry x="510" y="760" width="80" height="80" as="geometry" />
        </mxCell>
        <mxCell id="BfE1iQ-047-OJ5zsWS4T-29" style="shape=connector;rounded=1;orthogonalLoop=1;jettySize=auto;html=1;entryX=0;entryY=0.5;entryDx=0;entryDy=0;labelBackgroundColor=default;strokeColor=default;align=center;verticalAlign=middle;fontFamily=Helvetica;fontSize=20;fontColor=default;endArrow=classic;" parent="1" source="BfE1iQ-047-OJ5zsWS4T-13" target="BfE1iQ-047-OJ5zsWS4T-1" edge="1">
          <mxGeometry relative="1" as="geometry" />
        </mxCell>
        <mxCell id="BfE1iQ-047-OJ5zsWS4T-30" style="edgeStyle=orthogonalEdgeStyle;shape=connector;rounded=1;orthogonalLoop=1;jettySize=auto;html=1;labelBackgroundColor=default;strokeColor=default;align=center;verticalAlign=middle;fontFamily=Helvetica;fontSize=20;fontColor=default;endArrow=classic;curved=1;" parent="1" source="BfE1iQ-047-OJ5zsWS4T-13" target="BfE1iQ-047-OJ5zsWS4T-28" edge="1">
          <mxGeometry relative="1" as="geometry" />
        </mxCell>
        <mxCell id="BfE1iQ-047-OJ5zsWS4T-13" value="b" style="ellipse;whiteSpace=wrap;html=1;aspect=fixed;fontSize=20;" parent="1" vertex="1">
          <mxGeometry x="230" y="420" width="80" height="80" as="geometry" />
        </mxCell>
        <mxCell id="BfE1iQ-047-OJ5zsWS4T-28" value="c" style="ellipse;whiteSpace=wrap;html=1;aspect=fixed;fontSize=20;" parent="1" vertex="1">
          <mxGeometry x="230" y="770" width="80" height="80" as="geometry" />
        </mxCell>
        <mxCell id="BfE1iQ-047-OJ5zsWS4T-34" style="edgeStyle=orthogonalEdgeStyle;shape=connector;rounded=0;orthogonalLoop=1;jettySize=auto;html=1;labelBackgroundColor=default;strokeColor=default;align=center;verticalAlign=middle;fontFamily=Helvetica;fontSize=20;fontColor=default;endArrow=classic;exitX=0;exitY=0.5;exitDx=0;exitDy=0;entryX=0.5;entryY=0;entryDx=0;entryDy=0;" parent="1" source="BfE1iQ-047-OJ5zsWS4T-32" target="BfE1iQ-047-OJ5zsWS4T-32" edge="1">
          <mxGeometry relative="1" as="geometry">
            <mxPoint x="-120" y="500" as="targetPoint" />
            <Array as="points">
              <mxPoint x="-300" y="550" />
              <mxPoint x="-300" y="480" />
              <mxPoint x="-240" y="480" />
            </Array>
          </mxGeometry>
        </mxCell>
        <mxCell id="BfE1iQ-047-OJ5zsWS4T-40" value="b,c,d" style="edgeLabel;html=1;align=center;verticalAlign=middle;resizable=0;points=[];fontSize=20;fontFamily=Helvetica;fontColor=default;" parent="BfE1iQ-047-OJ5zsWS4T-34" vertex="1" connectable="0">
          <mxGeometry x="0.2388" relative="1" as="geometry">
            <mxPoint x="-2" y="-20" as="offset" />
          </mxGeometry>
        </mxCell>
        <mxCell id="BfE1iQ-047-OJ5zsWS4T-36" value="" style="edgeStyle=orthogonalEdgeStyle;shape=connector;rounded=0;orthogonalLoop=1;jettySize=auto;html=1;labelBackgroundColor=default;strokeColor=default;align=center;verticalAlign=middle;fontFamily=Helvetica;fontSize=20;fontColor=default;endArrow=classic;" parent="1" source="BfE1iQ-047-OJ5zsWS4T-32" target="BfE1iQ-047-OJ5zsWS4T-35" edge="1">
          <mxGeometry relative="1" as="geometry">
            <Array as="points">
              <mxPoint x="-250" y="610" />
              <mxPoint x="-250" y="610" />
            </Array>
          </mxGeometry>
        </mxCell>
        <mxCell id="BfE1iQ-047-OJ5zsWS4T-38" value="a" style="edgeLabel;html=1;align=center;verticalAlign=middle;resizable=0;points=[];fontSize=20;fontFamily=Helvetica;fontColor=default;" parent="BfE1iQ-047-OJ5zsWS4T-36" vertex="1" connectable="0">
          <mxGeometry x="-0.1824" y="-1" relative="1" as="geometry">
            <mxPoint x="-9" as="offset" />
          </mxGeometry>
        </mxCell>
        <mxCell id="BfE1iQ-047-OJ5zsWS4T-32" value="0F" style="ellipse;whiteSpace=wrap;html=1;aspect=fixed;fontSize=20;" parent="1" vertex="1">
          <mxGeometry x="-280" y="510" width="80" height="80" as="geometry" />
        </mxCell>
        <mxCell id="BfE1iQ-047-OJ5zsWS4T-37" value="" style="edgeStyle=orthogonalEdgeStyle;shape=connector;rounded=0;orthogonalLoop=1;jettySize=auto;html=1;labelBackgroundColor=default;strokeColor=default;align=center;verticalAlign=middle;fontFamily=Helvetica;fontSize=20;fontColor=default;endArrow=classic;" parent="1" source="BfE1iQ-047-OJ5zsWS4T-35" target="BfE1iQ-047-OJ5zsWS4T-32" edge="1">
          <mxGeometry relative="1" as="geometry">
            <Array as="points">
              <mxPoint x="-230" y="620" />
              <mxPoint x="-230" y="620" />
            </Array>
          </mxGeometry>
        </mxCell>
        <mxCell id="BfE1iQ-047-OJ5zsWS4T-39" value="c,d" style="edgeLabel;html=1;align=center;verticalAlign=middle;resizable=0;points=[];fontSize=20;fontFamily=Helvetica;fontColor=default;" parent="BfE1iQ-047-OJ5zsWS4T-37" vertex="1" connectable="0">
          <mxGeometry x="-0.1382" y="-1" relative="1" as="geometry">
            <mxPoint x="29" y="-8" as="offset" />
          </mxGeometry>
        </mxCell>
        <mxCell id="BfE1iQ-047-OJ5zsWS4T-42" value="" style="edgeStyle=orthogonalEdgeStyle;shape=connector;rounded=0;orthogonalLoop=1;jettySize=auto;html=1;labelBackgroundColor=default;strokeColor=default;align=center;verticalAlign=middle;fontFamily=Helvetica;fontSize=20;fontColor=default;endArrow=classic;" parent="1" source="BfE1iQ-047-OJ5zsWS4T-35" target="BfE1iQ-047-OJ5zsWS4T-41" edge="1">
          <mxGeometry relative="1" as="geometry">
            <Array as="points">
              <mxPoint x="-240" y="750" />
              <mxPoint x="-240" y="750" />
            </Array>
          </mxGeometry>
        </mxCell>
        <mxCell id="BfE1iQ-047-OJ5zsWS4T-43" value="b" style="edgeLabel;html=1;align=center;verticalAlign=middle;resizable=0;points=[];fontSize=20;fontFamily=Helvetica;fontColor=default;" parent="BfE1iQ-047-OJ5zsWS4T-42" vertex="1" connectable="0">
          <mxGeometry x="-0.2425" y="-2" relative="1" as="geometry">
            <mxPoint x="-8" as="offset" />
          </mxGeometry>
        </mxCell>
        <mxCell id="BfE1iQ-047-OJ5zsWS4T-35" value="1F" style="ellipse;whiteSpace=wrap;html=1;aspect=fixed;fontSize=20;" parent="1" vertex="1">
          <mxGeometry x="-280" y="640" width="80" height="80" as="geometry" />
        </mxCell>
        <mxCell id="BfE1iQ-047-OJ5zsWS4T-44" style="edgeStyle=orthogonalEdgeStyle;shape=connector;rounded=0;orthogonalLoop=1;jettySize=auto;html=1;exitX=1;exitY=0.5;exitDx=0;exitDy=0;entryX=1;entryY=0.5;entryDx=0;entryDy=0;labelBackgroundColor=default;strokeColor=default;align=center;verticalAlign=middle;fontFamily=Helvetica;fontSize=20;fontColor=default;endArrow=classic;" parent="1" source="BfE1iQ-047-OJ5zsWS4T-41" target="BfE1iQ-047-OJ5zsWS4T-32" edge="1">
          <mxGeometry relative="1" as="geometry">
            <Array as="points">
              <mxPoint x="-160" y="810" />
              <mxPoint x="-160" y="550" />
            </Array>
          </mxGeometry>
        </mxCell>
        <mxCell id="BfE1iQ-047-OJ5zsWS4T-45" value="a,b,d" style="edgeLabel;html=1;align=center;verticalAlign=middle;resizable=0;points=[];fontSize=20;fontFamily=Helvetica;fontColor=default;" parent="BfE1iQ-047-OJ5zsWS4T-44" vertex="1" connectable="0">
          <mxGeometry x="-0.2086" y="1" relative="1" as="geometry">
            <mxPoint x="31" y="-35" as="offset" />
          </mxGeometry>
        </mxCell>
        <mxCell id="_p7_q_p8LONjfCQwgLzd-2" value="" style="edgeStyle=orthogonalEdgeStyle;rounded=0;orthogonalLoop=1;jettySize=auto;html=1;" edge="1" parent="1" source="BfE1iQ-047-OJ5zsWS4T-41" target="_p7_q_p8LONjfCQwgLzd-1">
          <mxGeometry relative="1" as="geometry">
            <Array as="points">
              <mxPoint x="-250" y="810" />
            </Array>
          </mxGeometry>
        </mxCell>
        <mxCell id="_p7_q_p8LONjfCQwgLzd-6" value="с" style="edgeLabel;html=1;align=center;verticalAlign=middle;resizable=0;points=[];fontSize=20;" vertex="1" connectable="0" parent="_p7_q_p8LONjfCQwgLzd-2">
          <mxGeometry x="-0.145" relative="1" as="geometry">
            <mxPoint y="-20" as="offset" />
          </mxGeometry>
        </mxCell>
        <mxCell id="BfE1iQ-047-OJ5zsWS4T-41" value="2F" style="ellipse;whiteSpace=wrap;html=1;aspect=fixed;fontSize=20;" parent="1" vertex="1">
          <mxGeometry x="-280" y="770" width="80" height="80" as="geometry" />
        </mxCell>
        <mxCell id="BfE1iQ-047-OJ5zsWS4T-52" style="edgeStyle=orthogonalEdgeStyle;shape=connector;rounded=0;orthogonalLoop=1;jettySize=auto;html=1;labelBackgroundColor=default;strokeColor=default;align=center;verticalAlign=middle;fontFamily=Helvetica;fontSize=20;fontColor=default;endArrow=classic;entryX=0;entryY=0;entryDx=0;entryDy=0;exitX=0;exitY=0.5;exitDx=0;exitDy=0;" parent="1" source="BfE1iQ-047-OJ5zsWS4T-35" target="BfE1iQ-047-OJ5zsWS4T-35" edge="1">
          <mxGeometry relative="1" as="geometry">
            <Array as="points">
              <mxPoint x="-300" y="680" />
              <mxPoint x="-300" y="630" />
              <mxPoint x="-268" y="630" />
            </Array>
          </mxGeometry>
        </mxCell>
        <mxCell id="BfE1iQ-047-OJ5zsWS4T-55" value="a" style="edgeLabel;html=1;align=center;verticalAlign=middle;resizable=0;points=[];fontSize=20;fontFamily=Helvetica;fontColor=default;" parent="BfE1iQ-047-OJ5zsWS4T-52" vertex="1" connectable="0">
          <mxGeometry x="-0.2559" y="3" relative="1" as="geometry">
            <mxPoint x="-7" y="-11" as="offset" />
          </mxGeometry>
        </mxCell>
        <mxCell id="_p7_q_p8LONjfCQwgLzd-1" value="E" style="ellipse;whiteSpace=wrap;html=1;aspect=fixed;fontSize=20;" vertex="1" parent="1">
          <mxGeometry x="-440" y="770" width="80" height="80" as="geometry" />
        </mxCell>
        <mxCell id="_p7_q_p8LONjfCQwgLzd-7" style="edgeStyle=orthogonalEdgeStyle;shape=connector;rounded=0;orthogonalLoop=1;jettySize=auto;html=1;labelBackgroundColor=default;strokeColor=default;align=center;verticalAlign=middle;fontFamily=Helvetica;fontSize=20;fontColor=default;endArrow=classic;exitX=0;exitY=0.5;exitDx=0;exitDy=0;entryX=0.5;entryY=0;entryDx=0;entryDy=0;" edge="1" parent="1">
          <mxGeometry relative="1" as="geometry">
            <mxPoint x="-400" y="770" as="targetPoint" />
            <Array as="points">
              <mxPoint x="-460" y="810" />
              <mxPoint x="-460" y="740" />
              <mxPoint x="-400" y="740" />
            </Array>
            <mxPoint x="-440" y="810" as="sourcePoint" />
          </mxGeometry>
        </mxCell>
        <mxCell id="_p7_q_p8LONjfCQwgLzd-8" value="a,b,c,d" style="edgeLabel;html=1;align=center;verticalAlign=middle;resizable=0;points=[];fontSize=20;fontFamily=Helvetica;fontColor=default;" vertex="1" connectable="0" parent="_p7_q_p8LONjfCQwgLzd-7">
          <mxGeometry x="0.2388" relative="1" as="geometry">
            <mxPoint x="-2" y="-20" as="offset" />
          </mxGeometry>
        </mxCell>
      </root>
    </mxGraphModel>
  </diagram>
</mxfile>
